<svg xmlns="http://www.w3.org/2000/svg" xmlns:xlink="http://www.w3.org/1999/xlink" width="50" height="50" viewBox="0 0 50 50">
  <defs>
    <radialGradient id="radial-gradient" cx="0.683" cy="0.257" r="0.773" gradientUnits="objectBoundingBox">
      <stop offset="0.16" stop-color="#f2f2f2"/>
      <stop offset="0.292" stop-color="#eee"/>
      <stop offset="0.429" stop-color="#e2e2e2"/>
      <stop offset="0.569" stop-color="#cdcdcd"/>
      <stop offset="0.709" stop-color="#b0b0b0"/>
      <stop offset="0.8" stop-color="#999"/>
    </radialGradient>
    <radialGradient id="radial-gradient-2" cx="0.683" cy="0.257" r="0.773" gradientUnits="objectBoundingBox">
      <stop offset="0.16" stop-color="#ef3829"/>
      <stop offset="0.283" stop-color="#e93628"/>
      <stop offset="0.412" stop-color="#df3125"/>
      <stop offset="0.541" stop-color="#cf2821"/>
      <stop offset="0.672" stop-color="#b91c1a"/>
      <stop offset="0.8" stop-color="#9e0b0f"/>
    </radialGradient>
    <radialGradient id="radial-gradient-3" cx="10.652" cy="13.698" r="75.906" gradientUnits="objectBoundingBox">
      <stop offset="0.1" stop-color="#f1f2f2"/>
      <stop offset="0.253" stop-color="#efeff0"/>
      <stop offset="0.356" stop-color="#e7e8e9"/>
      <stop offset="0.445" stop-color="#dbdcdd"/>
      <stop offset="0.526" stop-color="#c9cacc"/>
      <stop offset="0.601" stop-color="#b1b4b6"/>
      <stop offset="0.672" stop-color="#97999c"/>
      <stop offset="0.68" stop-color="#939598"/>
    </radialGradient>
    <radialGradient id="radial-gradient-4" cx="15.991" cy="-2.328" r="27.108" xlink:href="#radial-gradient-3"/>
    <radialGradient id="radial-gradient-5" cx="0.573" cy="0.912" r="3.514" xlink:href="#radial-gradient-3"/>
    <radialGradient id="radial-gradient-6" cx="0.207" cy="-0.719" r="2.671" xlink:href="#radial-gradient-3"/>
    <radialGradient id="radial-gradient-7" cx="46.257" cy="-13.668" r="75.873" xlink:href="#radial-gradient-3"/>
    <radialGradient id="radial-gradient-8" cx="47.011" cy="-15.202" r="75.868" xlink:href="#radial-gradient-3"/>
    <radialGradient id="radial-gradient-9" cx="29.532" cy="-16.432" r="75.91" xlink:href="#radial-gradient-3"/>
    <radialGradient id="radial-gradient-10" cx="47.958" cy="-18.47" r="75.908" xlink:href="#radial-gradient-3"/>
    <radialGradient id="radial-gradient-11" cx="38.405" cy="-1.954" r="68.955" xlink:href="#radial-gradient-3"/>
    <radialGradient id="radial-gradient-12" cx="53.306" cy="-16.274" r="89.887" xlink:href="#radial-gradient-3"/>
    <radialGradient id="radial-gradient-13" cx="5.867" cy="3.995" r="75.878" xlink:href="#radial-gradient-3"/>
    <radialGradient id="radial-gradient-14" cx="27.51" cy="-2.138" r="70.23" xlink:href="#radial-gradient-3"/>
    <radialGradient id="radial-gradient-15" cx="22.535" cy="-3.595" r="74.913" xlink:href="#radial-gradient-3"/>
    <radialGradient id="radial-gradient-16" cx="5.353" cy="0.08" r="18.519" xlink:href="#radial-gradient-3"/>
    <radialGradient id="radial-gradient-17" cx="9.562" cy="1.157" r="31.203" xlink:href="#radial-gradient-3"/>
    <radialGradient id="radial-gradient-18" cx="16.943" cy="1.696" r="58.111" xlink:href="#radial-gradient-3"/>
    <radialGradient id="radial-gradient-19" cx="-1.052" cy="2.17" r="11.373" gradientUnits="objectBoundingBox">
      <stop offset="0.16" stop-color="#e11b22"/>
      <stop offset="0.292" stop-color="#de1a22"/>
      <stop offset="0.429" stop-color="#d41920"/>
      <stop offset="0.569" stop-color="#c5161c"/>
      <stop offset="0.709" stop-color="#af1116"/>
      <stop offset="0.8" stop-color="#9e0b0f"/>
    </radialGradient>
    <radialGradient id="radial-gradient-20" cx="1.516" cy="0.448" r="1.798" xlink:href="#radial-gradient-3"/>
  </defs>
  <g id="User-Settings" transform="translate(-0.8 -0.8)">
    <g id="My-Settings---Project-Select" transform="translate(0.8 0.8)">
      <g id="Group-9-Copy-2" transform="translate(0 0)">
        <g id="Bechtel_CMYK">
          <rect id="Rectangle" width="50" height="50" transform="translate(0)" fill="none"/>
          <g id="Group" transform="translate(0 0)">
            <rect id="Rectangle-2" data-name="Rectangle" width="50" height="50" fill="none"/>
            <g id="Group_2854" data-name="Group 2854" transform="translate(4.518 7.8)">
              <path id="Path" d="M25.5,0A17.3,17.3,0,1,1,8.2,17.3,17.3,17.3,0,0,1,25.5,0Z" transform="translate(-5.226)" fill="url(#radial-gradient)"/>
              <path id="Path-2" data-name="Path" d="M25.5,0A17.3,17.3,0,1,1,8.2,17.3,17.3,17.3,0,0,1,25.5,0Z" transform="translate(-5.226)" fill="url(#radial-gradient-2)"/>
              <g id="Path-3" data-name="Path" transform="translate(8.84 0.309)">
                <path id="Path_93" data-name="Path 93" d="M30.034,6.654a2.1,2.1,0,0,0-.7,0l-.039.039a1.86,1.86,0,0,1,.656,0A.038.038,0,0,1,30,6.731h.039C30.072,6.693,30.072,6.693,30.034,6.654Z" transform="translate(-18.137 -4.376)" fill="#8a8c8e"/>
                <path id="Path_94" data-name="Path 94" d="M5.563,30.7c-.039.039-.039.154-.077.193h0c-.077.039-.154.116-.154.154s-.039.077-.077.116c-.039,0-.077.116-.077.193H5.1a.991.991,0,0,1,.077.193h.077a.257.257,0,0,0,.154.193h0c.039.039,0,.154,0,.193h.077a.767.767,0,0,0,.232.348l.039.039V32.4c.116.039.27.039.425.077-.039-.039-.039-.116-.077-.154-.077-.039-.154,0-.193-.077l-.077-.193c-.077-.077-.116-.039-.154-.077V31.82H5.6v-.039a2.222,2.222,0,0,0,.077-.386v-.077h.077a1.128,1.128,0,0,0,.077-.348h.077c0-.077-.039-.154,0-.193C5.8,30.739,5.6,30.739,5.563,30.7Z" transform="translate(-3.282 -19.154)" fill="#8a8c8e"/>
                <path id="Path_95" data-name="Path 95" d="M3.7,33.8v.077c.154.077.039.232.077.27.193.154.116-.193.154-.193A2.364,2.364,0,0,0,3.7,33.8Z" transform="translate(-2.422 -21.057)" fill="#8a8c8e"/>
                <path id="Path_96" data-name="Path 96" d="M2.993,35.716c.077,0,.154-.039.154-.077a.169.169,0,0,0-.116-.039c-.077,0-.232.039-.232.077S2.916,35.716,2.993,35.716Z" transform="translate(-1.87 -22.162)" fill="#8a8c8e"/>
                <path id="Path_97" data-name="Path 97" d="M4.948,36.5v.077h-.27c.039,0-.077.116-.077.154a1.882,1.882,0,0,1,.425.154c-.039,0,.039-.077.077-.077h.077C4.986,36.654,5.45,36.5,4.948,36.5Z" transform="translate(-2.975 -22.714)" fill="#8a8c8e"/>
                <path id="Path_98" data-name="Path 98" d="M2.166,38.75v-.077a.3.3,0,0,0-.193,0,1.021,1.021,0,0,0,0,.348c.039,0,.039-.039.039,0L2.32,38.9v-.116A.876.876,0,0,1,2.166,38.75Z" transform="translate(-1.352 -24.037)" fill="#8a8c8e"/>
                <path id="Path_99" data-name="Path 99" d="M33.9,71.1a.272.272,0,0,0,.193.154c0,.039.039.077.039.116h.077l.154.541a.968.968,0,0,1,.386.039h0a.4.4,0,0,0-.27-.193h0c-.039-.039.039-.154,0-.193,0,0-.193-.116-.193-.154v-.077h-.077v-.154C34.093,71.1,33.9,71.139,33.9,71.1Z" transform="translate(-20.96 -43.953)" fill="#8a8c8e"/>
                <path id="Path_100" data-name="Path 100" d="M29.9,76.231h.193l.154-.193h.077c.039-.077.039-.193.077-.27l.154-.077c.039-.039.039-.232.077-.27h0c.116-.077.193-.154.193-.193s.077-.116.154-.193a.317.317,0,0,0,.154-.232h.077c.039-.154.039-.348.077-.5-.039,0-.154.039-.193,0a.389.389,0,0,0-.039.116" transform="translate(-18.505 -45.918)" fill="#8a8c8e"/>
                <path id="Path_101" data-name="Path 101" d="M19.442,87.145a16.415,16.415,0,0,0,3.089-.27h-.154a2.42,2.42,0,0,1-.425-.039s-.232-.039-.27-.039a.169.169,0,0,1-.116-.039.389.389,0,0,0-.116-.039.135.135,0,0,1-.077-.039s-.193-.039-.232-.039a.169.169,0,0,1-.116-.039s-.348-.039-.463-.039a.842.842,0,0,0-.232.039s-.232.039-.309.039a.4.4,0,0,0-.154.039s-.193.039-.232.039a.169.169,0,0,0-.116.039s-.463.039-.618.039a.716.716,0,0,1-.386-.077c0-.039-.27-.077-.348-.077a.4.4,0,0,0-.154.039s-.425.039-.579.039a1.461,1.461,0,0,1-.309-.039.389.389,0,0,0-.116-.039.135.135,0,0,1-.077-.039.389.389,0,0,0-.116-.039.135.135,0,0,1-.077-.039,2.224,2.224,0,0,0-.579-.039c-.154,0-.309,0-.309-.039s-.116-.039-.154-.039a.293.293,0,0,1-.154-.077.652.652,0,0,0-.232-.116c-.039,0-.077,0-.077-.039a.969.969,0,0,0-.386-.039c-.116,0-.193,0-.193-.039a.786.786,0,0,0-.193-.039.389.389,0,0,1-.116-.039s-.232-.039-.309-.039a.4.4,0,0,1-.154-.039.135.135,0,0,0-.077-.039.135.135,0,0,1-.077-.039,1.2,1.2,0,0,0-.27-.077.169.169,0,0,1-.116-.039.135.135,0,0,0-.077-.039.135.135,0,0,1-.077-.039.4.4,0,0,0-.154-.039.135.135,0,0,1-.077-.039.12.12,0,0,0-.077.039.083.083,0,0,0-.077.077v.039A15.617,15.617,0,0,0,19.442,87.145Z" transform="translate(-8.008 -52.854)" fill="#8a8c8e"/>
                <path id="Path_102" data-name="Path 102" d="M7.948,23.473s-.077.077-.116.077a.556.556,0,0,0-.116.077c0,.039-.039.077-.077.116A.292.292,0,0,0,7.6,23.9c0,.039.039.077.077.116a.3.3,0,0,1,.039.116s.039.039.039,0a.142.142,0,0,1,.039-.116c.077-.116.116-.27.154-.309a.549.549,0,0,0,.077-.232A.053.053,0,0,0,7.948,23.473Z" transform="translate(-4.816 -14.707)" fill="#8a8c8e"/>
                <path id="Path_103" data-name="Path 103" d="M.588,27.3a.72.72,0,0,1-.154.116c0,.039-.039,0-.039.077-.039.077.27.077.309,0s.154-.193.116-.232C.781,27.181.626,27.3.588,27.3Z" transform="translate(-0.391 -17.025)" fill="#8a8c8e"/>
                <path id="Path_104" data-name="Path 104" d="M25.087,75.861c-.077,0-.232-.039-.309,0-.077.077.193.348.193.348a.64.64,0,0,0,.386.116c.077-.039.039-.348.039-.348s.039-.193-.077-.193C25.241,75.745,25.125,75.822,25.087,75.861Z" transform="translate(-15.352 -46.822)" fill="#8a8c8e"/>
                <path id="Path_105" data-name="Path 105" d="M67.335,52.95c.039-.154.116-.27.154-.425h-.116a16.715,16.715,0,0,0,.077-2.394,1.05,1.05,0,0,0,0-.348c0-.039-.193-.154-.193-.193a4.011,4.011,0,0,0-.116-.463c-.077-.116-.309-.154-.386-.27-.077-.154,0-.309-.077-.463,0-.039-.116-.154-.116-.193l-.116.077c-.077.154,0,.27-.116.348-.232.116-.5,0-.811.077l-.077.193a2.845,2.845,0,0,1-.541-.154l-.5.154c0,.039.656.579.656.579Z" transform="translate(-39.683 -29.896)" fill="#8a8c8e"/>
                <path id="Path_106" data-name="Path 106" d="M55.136,8.539A17.7,17.7,0,0,0,50,4.6" transform="translate(-30.843 -3.133)" fill="#8a8c8e"/>
                <path id="Path_107" data-name="Path 107" d="M39.625,3.851l-6.8-1.738-.348.579-.927.463a.4.4,0,0,1-.154-.039.083.083,0,0,1,.077-.077c.039,0,.077,0,.077-.039a.135.135,0,0,1,.077-.039c.039,0,.077,0,.077-.039s.039-.039.077-.039.154,0,.154-.039l.039-.039a.566.566,0,0,0,.154-.077.135.135,0,0,1,.077-.039c.039,0,.077-.039.039-.077l-.541-1.081c0-.039-.039-.116-.077-.116s-.193,0-.193-.039A.49.49,0,0,1,31.67,1.3a1.48,1.48,0,0,0,.425-.193,3.933,3.933,0,0,0,.734,0c.077.039.193-.077.193-.077-.154-.039-.232-.077-.193-.116A1.167,1.167,0,0,1,33.176.8c.193,0,.656.039.656.039a.135.135,0,0,0,.077.039c.039,0,.077,0,.077.039s.077.039.116.039a1.2,1.2,0,0,1,.27.077.478.478,0,0,0,.116.077c.039,0,.193.077.193.116s.077.077.116.077.077,0,.077.039l.039.077a1.54,1.54,0,0,0,.154.116.135.135,0,0,0,.077.039c.039,0,.116,0,.116.039a.169.169,0,0,0,.116.039c.039,0,.193,0,.193.039s.039.039.077.039.154,0,.154.039a.4.4,0,0,0,.154.039c.077,0,.309.039.309.039a1.2,1.2,0,0,0,.386.077l.154-.039h.039c.039-.116.077-.193.116-.193s.116.039.116.077,0,.077.039.077a.038.038,0,0,1,.039.039.143.143,0,0,0,.116.077L37.308,2c.039.039,0,.154.077.193l.116.077h.309a.135.135,0,0,0,.077.039c.039,0,.077,0,.077.039L38,2.422a1.539,1.539,0,0,0,.154.116.135.135,0,0,0,.077.039c.039,0,.077,0,.077.039a.038.038,0,0,0,.039.039.113.113,0,0,0,.116-.116c0-.116.077-.232.154-.232l.039-.039Z" transform="translate(-19.426 -0.8)" fill="#8a8c8e"/>
                <g id="Group_2849" data-name="Group 2849" transform="translate(6.143 2.725)">
                  <path id="Path_108" data-name="Path 108" d="M.339,12.932.3,12.777c.039,0,.154-.039.154-.077H.57a.12.12,0,0,0,.039.077c0,.039.039.039.077.077.077.154-.039.154-.116.232" transform="translate(-0.3 -8.126)" fill="#8a8c8e"/>
                  <path id="Path_109" data-name="Path 109" d="M2.425,12.377a.053.053,0,0,1,0,.077.083.083,0,0,1-.077.077H2.309a.142.142,0,0,0-.116-.039h0a.555.555,0,0,0-.116.077s0,.039-.039,0L2,12.416l.039-.039c.077.039.077,0,.116-.077,0,0,.077.039.077,0C2.27,12.339,2.386,12.339,2.425,12.377Z" transform="translate(-1.344 -7.881)" fill="#8a8c8e"/>
                  <path id="Path_110" data-name="Path 110" d="M1.577,10.358H1.5V10.32h.039a.038.038,0,0,1,.039-.039c.039,0,.077,0,.077-.039a.555.555,0,0,0,.116-.077h.039l.077-.077h.039c.039,0,0,0,.039.039s.116,0,.154,0c.077,0,.116-.039.193,0s0,.077.077.077h0a.083.083,0,0,0,.077-.077v-.039L2.5,10.05a.389.389,0,0,1,.116-.039c.039-.039,0-.077.039-.116H2.7s.039,0,0,.039l-.039.039c0,.077.077.077.154.039l.077-.039c.039-.039.077-.077.116-.077,0,0,.077-.077.116-.077Q3.18,9.7,3.238,9.7c0-.077.039-.077.077-.154-.039-.039-.077-.077-.039-.116,0-.039.039-.039.077-.077V9.316a.12.12,0,0,0,.039-.077c.039-.039.039-.039.116,0a.038.038,0,0,0,.039.039c.039,0-.039-.077,0-.077h.039c.039.039,0,.077,0,.116a.135.135,0,0,0,.039.077l.039.077a.876.876,0,0,0-.039.154c-.039,0-.077.116-.077.154l-.039.039V9.779a.038.038,0,0,0-.039.039v.232a.038.038,0,0,0,.039.039l-.039.039h0c-.077.039-.116.193-.116.232s.039,0,.039.039v.039c0,.039-.077.077-.116.116" transform="translate(-1.037 -5.978)" fill="#8a8c8e"/>
                  <path id="Path_111" data-name="Path 111" d="M7.3,6.754a.142.142,0,0,1,.039-.116c0-.039,0-.039.039-.039h.039a.591.591,0,0,0,.193.27.135.135,0,0,0,.077.039c.039,0,.039.039.077.039s.077-.077.116-.077,0,.039,0,.039v.116a.135.135,0,0,0,.039.077h0c-.039,0-.039.039-.077.039" transform="translate(-4.597 -4.382)" fill="#8a8c8e"/>
                  <path id="Path_112" data-name="Path 112" d="M8.132,1.027c0-.039-.077-.154,0-.154h0A.135.135,0,0,1,8.17.95c.039.039,0,.077-.039.116A.038.038,0,0,0,8.17,1.1a1.673,1.673,0,0,1,.039.193.135.135,0,0,1-.039.077l.039.232a.389.389,0,0,1,.039.116v.116a.555.555,0,0,0,.077.116v.039h0c0,.039.077.154,0,.154-.039,0-.039-.077-.039-.077-.039-.039-.039-.077-.077-.077a.038.038,0,0,0-.039.039V2.07l-.039.039c0,.039-.077.116-.077.116a.169.169,0,0,0-.039.116c0,.077.039.077.039.077,0,.039,0,.039.039.077l.039.039.039.077-.039.039c-.116-.154-.154.077-.193.077L7.9,2.417" transform="translate(-4.965 -0.856)" fill="#8a8c8e"/>
                </g>
              </g>
              <g id="Path-4" data-name="Path" transform="translate(8.608 0.386)">
                <path id="Path_113" data-name="Path 113" d="M30.449,5.945a.9.9,0,0,0-.541-.154l-.154.154a.117.117,0,0,0,0,.154.522.522,0,0,0,.348,0,.12.12,0,0,1,.154-.077c.039,0,.039,0,.039.039.077,0,.154,0,.154-.039C30.488,6.022,30.526,5.983,30.449,5.945Z" transform="translate(-18.552 -3.551)"/>
                <path id="Path_114" data-name="Path 114" d="M6.311,30.132c-.077-.039-.116-.193-.193-.232l-.154.154c-.039.039-.039.154-.077.193h0c-.077.039-.154.116-.154.154s-.039.077-.077.116a.3.3,0,0,0-.077.193H5.5a.991.991,0,0,1,.077.193h.077a.257.257,0,0,0,.154.193h0c.039.039,0,.154,0,.193h.077a.767.767,0,0,0,.232.348l.039.039v.077c.116.039.27.039.425.077,0,0,.154-.154.154-.193s-.154,0-.193-.039c-.077-.039-.116.039-.154-.039l-.154-.193c-.077-.077-.077-.039-.077-.077l-.077-.116c-.039,0,0-.039,0-.039a.038.038,0,0,0-.039-.039,1.6,1.6,0,0,0,.039-.386v-.077h.077a1.127,1.127,0,0,0,.077-.348h.077" transform="translate(-3.682 -18.354)"/>
                <path id="Path_115" data-name="Path 115" d="M4.2,33.093v.077c.154.077.039.232.077.27.039,0,.039.039.039,0,.039,0,.232-.077.232-.154,0-.154-.193-.348-.193-.386Z" transform="translate(-2.884 -20.195)"/>
                <path id="Path_116" data-name="Path 116" d="M3.393,35.066a.4.4,0,0,0,.154-.039s.193-.116.154-.154-.309,0-.348,0-.154.154-.154.193S3.316,35.1,3.393,35.066Z" transform="translate(-2.27 -21.396)"/>
                <path id="Path_117" data-name="Path 117" d="M5.448,36.1v.077h-.27c.039,0-.077.116-.077.154a1.882,1.882,0,0,1,.425.154c-.039,0,.039-.077.077-.077h.077C5.8,36.216,5.911,36.1,5.448,36.1Z" transform="translate(-3.436 -22.16)"/>
                <path id="Path_118" data-name="Path 118" d="M2.566,38.032c0-.039-.039-.193-.039-.232l-.154.154a.408.408,0,0,0,0,.232l.309-.116A.169.169,0,0,1,2.566,38.032Z" transform="translate(-1.752 -23.203)"/>
                <path id="Path_119" data-name="Path 119" d="M34.3,70.454c.077.077.116.154.193.193v.077h.077s-.077.579-.077.7h0a.4.4,0,0,0,.27-.193h0c.154-.039.309.077.348.077l.154-.154L35,71c-.039-.039-.309-.5-.309-.5l-.232-.193Z" transform="translate(-21.36 -43.153)"/>
                <path id="Path_120" data-name="Path 120" d="M31.236,73.432c-.039.039-.039.154-.077.193h0a.257.257,0,0,0-.154.193h-.077v.154H30.85v.154h-.077l-.154.193c-.077.039-.193.039-.193.077l-.039-.039-.154.154a1.818,1.818,0,0,1,.077.193l-.154.077c-.077.154-.039.116-.077.27H30c0,.077.039.154,0,.193.077.039.077-.039.077.077h.193l.309-.463.772-1.313a.936.936,0,0,1,0-.348A1.286,1.286,0,0,1,31.236,73.432Z" transform="translate(-18.721 -44.933)"/>
                <path id="Path_121" data-name="Path 121" d="M8.448,22.973s-.077.077-.116.077a.556.556,0,0,0-.116.077.556.556,0,0,1-.077.116A.292.292,0,0,0,8.1,23.4c0,.039.039.077.077.116a.3.3,0,0,1,.039.116s.039.039.039,0,.077-.116.116-.154c.077-.116.039-.193.077-.27a.549.549,0,0,0,.077-.232A.053.053,0,0,0,8.448,22.973Z" transform="translate(-5.278 -14.091)"/>
                <path id="Path_122" data-name="Path 122" d="M.988,26.9c0,.039-.077.077-.154.116,0,.039-.039,0-.039.077-.039.077.27.077.309,0s.154-.193.116-.232C1.181,26.781,1.026,26.9.988,26.9Z" transform="translate(-0.791 -16.47)"/>
                <path id="Path_123" data-name="Path 123" d="M25.432,75.176l-.154.154c-.077.077.193.348.193.348a.64.64,0,0,0,.386.116c.039,0,.154-.154.154-.154a.266.266,0,0,0-.116-.193s.039-.193-.077-.193A.476.476,0,0,0,25.432,75.176Z" transform="translate(-15.814 -46.137)"/>
                <path id="Path_124" data-name="Path 124" d="M44.854,13.793s.039-.154,0-.193l-.116.116a.12.12,0,0,1-.039.077,1.673,1.673,0,0,0,.039.193,1.518,1.518,0,0,0,.077.232c.039.077.077.039.077.039h.039c.039-.039.077-.077.116-.077a.808.808,0,0,0-.154-.232A.226.226,0,0,0,44.854,13.793Z" transform="translate(-27.744 -8.348)"/>
                <path id="Path_125" data-name="Path 125" d="M55.184,52.168a17.078,17.078,0,0,1-3.128,5.059,17.629,17.629,0,0,1-7.53,4.9.876.876,0,0,1-.039-.154c-.039-.154.077-.116.116-.116,0-.039.077-.077.116-.077s.309-.348.348-.348S47,60.393,47,60.393c0-.116.077-.309.116-.309a.083.083,0,0,0,.077-.077c0-.039-.039-.077-.116-.077-.039,0,.077-.077.116-.077s.077,0,.077-.039c0,0,.656-.27.7-.27s.077-.116.077-.193a.475.475,0,0,1,.077-.193.038.038,0,0,0,.039-.039,2.6,2.6,0,0,0,.425-.27c0-.039.039-.077.077-.116.039,0,.077-.077.077-.154s.039-.27,0-.27.039-.077.116-.077a1.371,1.371,0,0,0,.348-.154.342.342,0,0,0,.154-.193c0-.039,0-.077.039-.077a.038.038,0,0,0,.039-.039,1.269,1.269,0,0,1-.232-.116c0-.039,0,0,.154-.116l.077-.077a1.043,1.043,0,0,0,.463-.193c.039-.039.116-.116.116-.154s0-.193.039-.193.039-.077.039-.154,0-.309.039-.309.039-.039.039-.077.039-.154.077-.154.077-.077.116-.116l.154-.154a.038.038,0,0,1,.039-.039.135.135,0,0,0,.039-.077.207.207,0,0,1,.116-.154c.039-.039.116-.116.116-.154s0-.193-.039-.193a.169.169,0,0,1-.039-.116c0-.039,0-.193-.039-.193a.4.4,0,0,1-.039-.154c0-.077.039-.348.077-.348s.077-.116.039-.193c0-.077,0-.193.039-.232a.566.566,0,0,0,.154-.077s.039-.077.077-.077.077-.077.077-.116.039-.077.077-.116c.039,0,.077-.077.077-.154,0-.039,0-.193-.039-.193a.389.389,0,0,1-.039-.116c0-.077,0-.232.039-.232a.135.135,0,0,0,.039-.077c0-.039.039-.077.077-.116.039,0,.039-.154.039-.309a1.45,1.45,0,0,1,0-.425l.077-.077a1.61,1.61,0,0,1,.077-.232,1.711,1.711,0,0,0-.193-.232,1.163,1.163,0,0,1-.077-.7s.077-.039.077-.077.077-.077.116-.116c.039,0,.077-.077.077-.116s.039-.077.077-.116c.039,0,.077-.077.077-.116s0-.116.039-.116a.135.135,0,0,0,.039-.077c0-.039,0-.077.039-.077s.039-.039.039-.077a.123.123,0,0,1,.116-.116c.039-.039.386,0,.425-.039s.232-.7.27-.7a.566.566,0,0,1,.077-.154.135.135,0,0,0,.039-.077c0-.039,0-.116.039-.116a.135.135,0,0,0,.039-.077c0-.039,0-.077.039-.077a.169.169,0,0,0,.039-.116,1.672,1.672,0,0,1,.039-.193.135.135,0,0,0,.039-.077c0-.039.039-.27,0-.27s-.116-.077-.193-.154a.342.342,0,0,0-.193-.154.074.074,0,0,1-.039-.116v-.116l.27-.116.734.193.077-.193c.27-.077.579.039.811-.077.116-.077.077-.193.116-.348l.116-.077a.844.844,0,0,0,.116.193Z" transform="translate(-27.609 -28.728)"/>
                <path id="Path_126" data-name="Path 126" d="M37.229,8.225h0c-.039-.039-.077-.077-.077-.116s0-.077-.039-.077a.842.842,0,0,1-.039-.232c0-.116-.039-.425-.039-.425A.135.135,0,0,1,37,7.3c0-.039,0-.116-.039-.116s0,0,0-.039,0-.193.039-.193a.135.135,0,0,0,.039-.077c0-.039,0-.116.039-.116a.4.4,0,0,0,.039-.154c0-.077-.039-.232-.116-.232s-.039-.27,0-.232.077.039.154.039-.039-.618-.039-.618V5.174a1.141,1.141,0,0,0,.116-.232c0-.077-.039-.309-.039-.309a.135.135,0,0,1-.039-.077c0-.039,0-.077-.039-.077a.038.038,0,0,1-.039-.039A.135.135,0,0,0,37,4.4c-.039,0-.077-.039-.116-.077,0-.039-.077-.077-.116-.077a.135.135,0,0,1-.077-.039.083.083,0,0,0-.077-.077.135.135,0,0,1-.039-.077c0-.039,0-.077-.039-.077A.135.135,0,0,1,36.5,3.9c0-.039,0-.116-.039-.116h-.077L36.3,3.668a.943.943,0,0,1-.039-.27,1.141,1.141,0,0,0-.077-.348.038.038,0,0,1-.039-.039.169.169,0,0,0-.116-.039.4.4,0,0,1-.154-.039V2.819a.549.549,0,0,0-.077-.232c-.039-.039-.154,0-.193,0s-.193-.039-.193-.077-.154-.154-.116-.232c.039-.039.232-.039,0-.116l-.077-.039c-.154,0-.27.039-.27,0s-.039-.077-.116-.116c-.039-.039-.116-.116-.116-.154s-.154-.039-.309,0a1.641,1.641,0,0,1-.656-.039l-.039-.077c-.039-.039-.232,0-.27.039,0,.039-.039.077-.077.039a.123.123,0,0,0-.116.116.272.272,0,0,1-.154.193.653.653,0,0,0-.232.116c0,.039-.039.039-.077.039-.039-.039-.154,0-.154,0a.478.478,0,0,1-.116.077,1.752,1.752,0,0,0-.309.077.169.169,0,0,1-.116.039c-.039,0-.193-.039-.193-.077a.083.083,0,0,1,.077-.077c.039,0,.077,0,.077-.039a.135.135,0,0,1,.077-.039c.039,0,.077,0,.077-.039a.135.135,0,0,1,.077-.039c.039,0,.154,0,.154-.039l.039-.039a.566.566,0,0,0,.154-.077.135.135,0,0,1,.077-.039c.039,0,.077-.039.039-.077,0-.039-.077-.077-.116-.077s-.077,0-.077-.039a.038.038,0,0,0-.039-.039.038.038,0,0,1-.039-.039A.135.135,0,0,0,32.4,1.66c-.039,0-.116-.039-.077-.116a.653.653,0,0,0,.116-.232.143.143,0,0,0-.116-.077L32.286,1.2l-.039-.039a.169.169,0,0,0-.039-.116s-.039-.039,0-.116c0-.039.039-.154.039-.193S32.209.618,32.17.618s-.193,0-.193-.039A.489.489,0,0,1,32.209.5a1.48,1.48,0,0,0,.425-.193,3.933,3.933,0,0,0,.734,0c.077.039.193-.077.193-.077-.154-.039-.232-.077-.193-.116A1.167,1.167,0,0,1,33.715,0a2.041,2.041,0,0,1,.463.039L37.422,2.78l1,4.827Z" transform="translate(-19.887 0)"/>
                <g id="Group_2850" data-name="Group 2850" transform="translate(6.182 2.742)">
                  <path id="Path_127" data-name="Path 127" d="M1.07,12.116a.12.12,0,0,0,.039.077c0,.039.039.039.077.077.077.154.077.116-.039.232l-.116.116c0,.039-.039.039-.077.039a.3.3,0,0,1-.116.077C.839,12.7.8,12.7.8,12.656a.408.408,0,0,1,.077-.193c.039,0,.077,0,.116-.077v-.039l-.039-.039c-.077-.154-.077.077-.116,0-.039-.039,0-.077-.039-.154.039,0,.154-.154.154-.154S1.032,12.116,1.07,12.116Z" transform="translate(-0.8 -7.405)"/>
                  <path id="Path_128" data-name="Path 128" d="M2.679,12.616c.039.039-.077.077-.116.077a.083.083,0,0,1-.077.077H2.448a.142.142,0,0,0-.116-.039h0a.555.555,0,0,0-.116.077s0,.039-.039,0c-.039,0-.077-.154-.077-.154l.039-.039c.077.039.077-.077.116-.116l.077.077C2.409,12.577,2.641,12.539,2.679,12.616Z" transform="translate(-1.598 -7.712)"/>
                  <path id="Path_129" data-name="Path 129" d="M3.876,9.5c0,.039-.116.116-.154.154l-.039-.039s.039.039-.039,0c-.077,0-.077-.039-.077-.039H3.529l-.039.039c-.039,0,0-.039-.077-.039s-.039.077-.116.116c-.039-.039-.116-.116-.154-.116h0L3.1,9.616v.077a.12.12,0,0,1-.077.039.12.12,0,0,1-.077.039l-.039.039c-.039,0-.039.039-.077.039V9.81L2.8,9.771c.039-.039.154-.154.077-.193H2.834a.142.142,0,0,0-.116-.039c-.077,0-.116.039-.193.039a.038.038,0,0,1-.039-.039H2.37c-.039.039-.077.039-.077.077a.389.389,0,0,0-.116-.039V9.539H2.1s.27-.232.27-.27l-.193.193a1.539,1.539,0,0,0,.154-.116c.039,0-.039.039-.039.039s.579-.116.618-.116c.077.039.309-.116.309-.116.039-.039,0-.077.039-.116l.154-.154a.876.876,0,0,0-.039.154s0,.116.077.077c0,0,.386-.309.425-.348,0-.077.039-.077.077-.154-.039-.039-.077-.077-.039-.116,0-.039.039-.039.077-.077V8.381A.12.12,0,0,0,4.031,8.3c.039-.039.116-.154.154-.116C4.108,8.265,3.915,9.462,3.876,9.5Z" transform="translate(-1.598 -5.06)"/>
                  <path id="Path_130" data-name="Path 130" d="M7.861,6.3c0,.039-.077.116-.077.116l-.039.039c-.039,0-.039.039-.077.039a.876.876,0,0,1-.154.039l-.077.077-.154.154-.193-.193H6.973a.389.389,0,0,0-.039.116v.077h0c-.077,0-.039,0-.077.039l-.039.039c-.116-.077,0-.039,0-.116L6.78,6.688V6.611A.142.142,0,0,1,6.818,6.5L6.9,6.456a.072.072,0,0,0,0-.116L6.934,6.3a.191.191,0,0,0,.116.039h0c0-.077.039-.154.077-.154a.191.191,0,0,1,.039-.116A.142.142,0,0,1,7.2,5.954c0-.039,0-.039.039-.039S7.32,5.8,7.359,5.8C7.359,5.954,7.861,6.225,7.861,6.3Z" transform="translate(-4.463 -3.599)"/>
                  <path id="Path_131" data-name="Path 131" d="M8.87.1l.039.154C8.948.293,8.87.37,8.87.448a.038.038,0,0,1-.039.039A1.672,1.672,0,0,1,8.87.679V.8s-.039.193,0,.232a.389.389,0,0,1,.039.116v.116s.116,0,.116.039c0,0,.077.154.116.154,0,0-.116.154-.154.154s-.039-.077-.039-.077c-.039-.039-.039-.077-.077-.077a.038.038,0,0,0-.039.039v.039l-.039.039v.154a.169.169,0,0,1,.039.116c0,.077-.116.039-.077.077,0,.039,0,.039.039.077,0,0,.116-.116.116-.077l.077.116-.154.154c-.116-.154-.154.077-.193.077S8.6,2.108,8.6,2.069c.039-.039,0-.116,0-.154s.039,0,.039-.077V1.683L8.6,1.645c.039-.077.039-.116.077-.193l.039-.116V1.3c.039-.039,0-.116,0-.154V1.027c0-.039.039,0,0-.077A.038.038,0,0,0,8.677.911.389.389,0,0,1,8.716.8V.6c0-.039.077-.077.077-.077L8.832.486c0-.039-.077-.154,0-.154C8.754.216,8.832.1,8.87.1Z" transform="translate(-5.588 -0.1)"/>
                </g>
              </g>
              <g id="Path-5" data-name="Path" transform="translate(8.804 0.193)">
                <path id="Path_132" data-name="Path 132" d="M30.636,74.3c-.039.039-.039.154-.077.193h0a.257.257,0,0,0-.154.193h-.077v.154H30.25V75h-.077l-.154.193c-.077.039-.193.039-.193.077v.154c-.077.039-.154-.039-.193,0a1.818,1.818,0,0,1,.077.193l-.154.077c-.077.154-.039.116-.077.27H29.4c0,.077.039.154,0,.193.077.039.077-.039.077.077h.193l.154-.193H29.9c.039-.077.039-.193.077-.27l.154-.077c.039-.039.039-.232.077-.27h0c.116-.077.193-.154.193-.193s.077-.116.154-.193a.317.317,0,0,0,.154-.232h.077c.039-.154.039-.348.077-.5C30.829,74.3,30.713,74.339,30.636,74.3Z" transform="translate(-18.163 -45.802)" fill="#939598"/>
                <path id="Path_133" data-name="Path 133" d="M29.949,6.754a2.1,2.1,0,0,0-.7,0,.117.117,0,0,0,0,.154.522.522,0,0,0,.348,0,.12.12,0,0,1,.154-.077c.039,0,.039,0,.039.039.077,0,.154,0,.154-.039S29.988,6.793,29.949,6.754Z" transform="translate(-18.055 -4.321)" fill="url(#radial-gradient-3)"/>
                <path id="Path_134" data-name="Path 134" d="M5.363,30.9c-.039.039-.039.154-.077.193h0c-.077.039-.154.116-.154.154s-.039.077-.077.116a.3.3,0,0,0-.077.193H4.9a.991.991,0,0,1,.077.193h.077a.257.257,0,0,0,.154.193h0c.039.039,0,.154,0,.193h.077a.767.767,0,0,0,.232.348l.039.039V32.6c.116.039.27.039.425.077-.039-.039-.039-.116-.077-.154-.077-.039-.154,0-.193-.077l-.077-.193c-.077-.077-.116-.039-.154-.077V32.02H5.4v-.039a2.223,2.223,0,0,0,.077-.386v-.077h.077a1.128,1.128,0,0,0,.077-.348h.077c0-.077-.039-.154,0-.193C5.634,30.939,5.441,30.939,5.363,30.9Z" transform="translate(-3.124 -19.161)" fill="url(#radial-gradient-4)"/>
                <path id="Path_135" data-name="Path 135" d="M36.622,8.841a.12.12,0,0,0-.077-.039.038.038,0,0,0-.039-.039.135.135,0,0,1-.039-.077c0-.039,0-.077-.039-.077s-.039-.116-.039-.232-.039-.425-.039-.425a.135.135,0,0,1-.039-.077c0-.039,0-.116-.039-.116a.169.169,0,0,1-.039-.116c0-.039,0-.193.039-.193a.135.135,0,0,0,.039-.077c0-.039,0-.116.039-.116s.039-.077.039-.154-.039-.232-.116-.232-.039-.27,0-.232.077.039.154.039-.039-.618-.039-.618V5.674a1.141,1.141,0,0,0,.116-.232c0-.077-.039-.309-.039-.309a.135.135,0,0,1-.039-.077c0-.039,0-.077-.039-.077a.038.038,0,0,1-.039-.039.135.135,0,0,0-.077-.039c-.039,0-.077-.039-.116-.077,0-.039-.077-.077-.116-.077a.135.135,0,0,1-.077-.039.083.083,0,0,0-.077-.077.135.135,0,0,1-.039-.077c0-.039,0-.077-.039-.077a.135.135,0,0,1-.039-.077c0-.039,0-.116-.039-.116h-.077l-.077-.116a.943.943,0,0,1-.039-.27,1.141,1.141,0,0,0-.077-.348.038.038,0,0,1-.039-.039.169.169,0,0,0-.116-.039.4.4,0,0,1-.154-.039V3.319a.549.549,0,0,0-.077-.232c-.039-.039-.154,0-.193,0s-.193-.039-.193-.077-.154-.154-.116-.232c.039-.039.232-.039,0-.116l-.154-.039c-.154,0-.27.039-.27,0a.288.288,0,0,0-.116-.116c-.039-.039-.116-.116-.116-.154s-.154-.039-.309,0a1.641,1.641,0,0,1-.656-.039.135.135,0,0,0-.039-.077c-.039-.039-.232,0-.27.039,0,.039-.039.077-.077.039a.123.123,0,0,0-.116.116.272.272,0,0,1-.154.193.653.653,0,0,0-.232.116c0,.039-.039.039-.077.039-.039-.039-.154,0-.154,0a.478.478,0,0,1-.116.077,1.752,1.752,0,0,0-.309.077.169.169,0,0,1-.116.039c-.039,0-.193-.039-.193-.077a.083.083,0,0,1,.077-.077c.039,0,.077,0,.077-.039s.039-.039.077-.039.077,0,.077-.039a.135.135,0,0,1,.077-.039c.039,0,.154,0,.154-.039l.039-.039a.566.566,0,0,0,.154-.077.135.135,0,0,1,.077-.039c.039,0,.077-.039.039-.077,0-.039-.077-.077-.116-.077s-.077,0-.077-.039,0-.039-.039-.039a.038.038,0,0,1-.039-.039A.135.135,0,0,0,31.6,2.16c-.039,0-.116-.039-.077-.116a.652.652,0,0,0,.116-.232.143.143,0,0,0-.116-.077L31.486,1.7l-.039-.039a.169.169,0,0,0-.039-.116s-.039-.039,0-.116c0-.039.039-.154.039-.193s-.039-.116-.077-.116-.193,0-.193-.039A.49.49,0,0,1,31.409,1a1.48,1.48,0,0,0,.425-.193,3.933,3.933,0,0,0,.734,0c.077.039.193-.077.193-.077-.154-.039-.232-.077-.193-.116A1.167,1.167,0,0,1,32.915.5c.193,0,.656.039.656.039a.135.135,0,0,0,.077.039c.039,0,.077,0,.077.039s.077.039.116.039a1.2,1.2,0,0,1,.27.077.478.478,0,0,0,.116.077c.039,0,.193.077.193.116S34.5,1,34.537,1s.077,0,.077.039l.039.077a1.54,1.54,0,0,0,.154.116.135.135,0,0,0,.077.039c.039,0,.116,0,.116.039a.169.169,0,0,0,.116.039c.039,0,.193,0,.193.039s.039.039.077.039.154,0,.154.039A.4.4,0,0,0,35.7,1.5c.077,0,.309.039.309.039a1.2,1.2,0,0,0,.386.077l.154-.039h.039c.039-.116.077-.193.116-.193s.116.039.116.077,0,.077.039.077a.038.038,0,0,1,.039.039.143.143,0,0,0,.116.077l.039.039c.039.039,0,.154.077.193l.116.077h.309a.135.135,0,0,0,.077.039c.039,0,.077,0,.077.039l.039.077a1.54,1.54,0,0,0,.154.116.135.135,0,0,0,.077.039c.039,0,.077,0,.077.039a.038.038,0,0,0,.039.039s.116-.039.116-.116c0-.116.077-.232.154-.232l.077-.077a17.213,17.213,0,0,1,5.175,3.939Z" transform="translate(-19.206 -0.5)" fill="url(#radial-gradient-5)"/>
                <path id="Path_136" data-name="Path 136" d="M52.09,48.841a3.217,3.217,0,0,0,.579.154l.077-.193c.27-.077.579.039.811-.077.116-.077.077-.193.116-.348l.116-.077a.844.844,0,0,0,.116.193c.039.154,0,.348.077.463s.309.154.386.27c.116.154.039.27.116.463,0,.039.193.193.193.193.039.077,0,.232,0,.348a16.719,16.719,0,0,1-.077,2.394h.154c-.039.154-.116.309-.154.425v.039c-.039.116-.077.193-.116.309a17.412,17.412,0,0,1-10.658,10c0-.077-.039-.116-.039-.193-.039-.116.077-.116.116-.116,0-.039.077-.077.116-.077s.077-.039.077-.116a.174.174,0,0,1,.116-.116.083.083,0,0,0,.077-.077.083.083,0,0,1,.077-.077c.039,0,.116,0,.116-.039a.135.135,0,0,1,.077-.039.991.991,0,0,0,.193-.077.135.135,0,0,1,.077-.039c.039,0,.154-.077.154-.116A.174.174,0,0,1,45.1,62.2a.3.3,0,0,0,.154-.154.174.174,0,0,1,.116-.116.083.083,0,0,0,.077-.077c0-.039.077-.154.116-.154a.083.083,0,0,0,.077-.077c0-.039.193-.077.463-.077l.116-.077.077-.039c0-.116.039-.193.077-.193a.083.083,0,0,0,.077-.077c0-.039-.039-.077-.116-.077-.039,0,.077-.077.116-.077s.077,0,.077-.039a.842.842,0,0,1,.232-.039.726.726,0,0,0,.386-.154.083.083,0,0,1,.077-.077c.039,0,.077-.116.077-.193a.475.475,0,0,1,.077-.193.038.038,0,0,0,.039-.039c0-.039.077-.077.154-.077a.493.493,0,0,0,.27-.193c0-.039.039-.077.077-.116.039,0,.077-.077.077-.154s.039-.27,0-.27.039-.077.116-.077a1.365,1.365,0,0,0,.232-.039.288.288,0,0,1,.116-.116.343.343,0,0,0,.154-.193c0-.039,0-.077.039-.077s.039,0,.039-.039a1.269,1.269,0,0,1-.232-.116c0-.039,0,0,.154-.116l.077-.077c.193,0,.348-.039.348-.077a.207.207,0,0,1,.116-.154c.039-.039.116-.116.116-.154s0-.193.039-.193a.4.4,0,0,0,.039-.154c0-.077,0-.309.039-.309a.135.135,0,0,0,.039-.077c0-.039.039-.154.077-.154s.077-.077.116-.116l.154-.154a.038.038,0,0,1,.039-.039.135.135,0,0,0,.039-.077.207.207,0,0,1,.116-.154c.039-.039.116-.116.116-.154s0-.193-.039-.193A.169.169,0,0,1,50,56.332c0-.077,0-.193-.039-.193a.4.4,0,0,1-.039-.154c0-.077.039-.348.077-.348s.077-.116.039-.193c0-.077,0-.193.039-.232a.566.566,0,0,0,.154-.077s.039-.077.077-.077.077-.077.077-.116.039-.077.077-.116c.039,0,.077-.077.077-.154s0-.193-.039-.193a.389.389,0,0,1-.039-.116c0-.077,0-.232.039-.232a.135.135,0,0,0,.039-.077c0-.039.039-.077.077-.116.039,0,.039-.154.039-.309a1.45,1.45,0,0,1,0-.425l.077-.077a1.61,1.61,0,0,1,.077-.232,1.713,1.713,0,0,0-.193-.232c-.232.154-.193-.425-.193-.425s.077-.039.077-.077.077-.077.116-.116c.039,0,.077-.077.077-.116s.039-.077.077-.116c.039,0,.077-.077.077-.116s0-.116.039-.116a.135.135,0,0,0,.039-.077c0-.039,0-.077.039-.077a.135.135,0,0,0,.039-.077.123.123,0,0,1,.116-.116c.039-.039.116-.116.116-.154a.207.207,0,0,1,.116-.154c.039-.039.116-.116.116-.154s.039-.077.116-.077.154-.116.154-.154,0-.077.039-.077a.12.12,0,0,0,.077-.039.566.566,0,0,1,.077-.154.135.135,0,0,0,.039-.077c0-.039,0-.116.039-.116s.039-.039.039-.077,0-.077.039-.077.039-.039.039-.116a1.673,1.673,0,0,1,.039-.193.135.135,0,0,0,.039-.077c0-.039.039-.27,0-.27s-.116-.077-.193-.154a.342.342,0,0,0-.193-.154c-.039,0-.077-.039-.039-.116Z" transform="translate(-26.99 -29.842)" fill="url(#radial-gradient-6)"/>
                <path id="Path_137" data-name="Path 137" d="M3.6,33.9v.077c.154.077.039.232.077.27.193.154.116-.193.154-.193A2.364,2.364,0,0,0,3.6,33.9Z" transform="translate(-2.326 -21.002)" fill="url(#radial-gradient-7)"/>
                <path id="Path_138" data-name="Path 138" d="M2.893,35.877a.4.4,0,0,0,.154-.039.169.169,0,0,0-.116-.039c-.077,0-.232.039-.232.077A.3.3,0,0,0,2.893,35.877Z" transform="translate(-1.773 -22.169)" fill="url(#radial-gradient-8)"/>
                <path id="Path_139" data-name="Path 139" d="M4.848,36.6v.077h-.27c.039,0-.077.116-.077.154a1.883,1.883,0,0,1,.425.154c-.039,0,.039-.077.077-.077h.077C4.886,36.754,5.35,36.6,4.848,36.6Z" transform="translate(-2.878 -22.66)" fill="url(#radial-gradient-9)"/>
                <path id="Path_140" data-name="Path 140" d="M1.966,38.85v-.077a.3.3,0,0,0-.193,0,.767.767,0,0,0,0,.309l.348-.154v-.039A.876.876,0,0,0,1.966,38.85Z" transform="translate(-1.193 -23.983)" fill="url(#radial-gradient-10)"/>
                <path id="Path_141" data-name="Path 141" d="M18.77,68.455c.077,0,.309-.039.348-.039l.039-.039.039-.039v-.463s.077-.039.077-.077.077-.077.116-.077.077-.039.116-.077a.083.083,0,0,1,.077-.077.135.135,0,0,0,.039-.077.207.207,0,0,1,.116-.154c.039-.039.116-.116.116-.154a2.462,2.462,0,0,1,.077-.27.135.135,0,0,0,.039-.077.135.135,0,0,1,.039-.077.174.174,0,0,0,.116-.116.514.514,0,0,1,.116-.193c.039,0,.077-.077.077-.116s0-.077.039-.077a1.2,1.2,0,0,0,.077-.27.4.4,0,0,0-.039-.154.169.169,0,0,1-.039-.116c0-.039,0-.193-.039-.193a.135.135,0,0,1-.039-.077c0-.039,0-.116-.039-.116s-.039-.077-.077-.154a2.462,2.462,0,0,0-.077-.348.135.135,0,0,1-.039-.077.389.389,0,0,0-.039-.116.038.038,0,0,1-.039-.039.555.555,0,0,0-.077-.116l-.077-.077L14.6,66.524a.42.42,0,0,0,.193.039L17.96,66.1Z" transform="translate(-9.078 -39.725)" fill="#8a8c8e"/>
                <path id="Path_142" data-name="Path 142" d="M33.7,71.3c.077.077.116.154.193.193v.077h.077s-.077.579-.077.7h0a.4.4,0,0,0,.27-.193h0c.154-.039.309.077.348.077h0a.4.4,0,0,0-.27-.193h0c-.039-.039.039-.154,0-.193,0,0-.193-.116-.193-.154v-.077H33.97v-.154C33.932,71.3,33.777,71.339,33.7,71.3Z" transform="translate(-20.802 -43.96)" fill="#939598"/>
                <path id="Path_143" data-name="Path 143" d="M22.013,86.936s-.232-.039-.27-.039a.169.169,0,0,1-.116-.039.389.389,0,0,0-.116-.039.135.135,0,0,1-.077-.039s-.193-.039-.232-.039a.169.169,0,0,1-.116-.039s-.348-.039-.463-.039a.842.842,0,0,0-.232.039s-.232.039-.309.039a.4.4,0,0,0-.154.039s-.193.039-.232.039a.169.169,0,0,0-.116.039s-.463.039-.618.039a.716.716,0,0,1-.386-.077c0-.039-.27-.077-.348-.077a.4.4,0,0,0-.154.039s-.425.039-.579.039a1.461,1.461,0,0,1-.309-.039.389.389,0,0,0-.116-.039.135.135,0,0,1-.077-.039.389.389,0,0,0-.116-.039.135.135,0,0,1-.077-.039,2.224,2.224,0,0,0-.579-.039c-.154,0-.309,0-.309-.039a.876.876,0,0,0-.154-.039.293.293,0,0,1-.154-.077.652.652,0,0,0-.232-.116c-.039,0-.077,0-.077-.039a.969.969,0,0,0-.386-.039c-.116,0-.193,0-.193-.039a.786.786,0,0,0-.193-.039.389.389,0,0,1-.116-.039s-.232-.039-.309-.039a.4.4,0,0,1-.154-.039.135.135,0,0,0-.077-.039.135.135,0,0,1-.077-.039,1.2,1.2,0,0,0-.27-.077.169.169,0,0,1-.116-.039.135.135,0,0,0-.077-.039.135.135,0,0,1-.077-.039.4.4,0,0,0-.154-.039.135.135,0,0,1-.077-.039.12.12,0,0,0-.077.039c-.039,0-.039.039-.039.077a17.344,17.344,0,0,0,9.538,1.12C22.129,86.974,22.013,86.974,22.013,86.936Z" transform="translate(-8.034 -52.799)" fill="#939598"/>
                <path id="Path_144" data-name="Path 144" d="M7.748,23.6s-.077.077-.116.077a.556.556,0,0,0-.116.077.555.555,0,0,1-.077.116.292.292,0,0,0-.039.154c0,.039.039.077.077.116a.191.191,0,0,1,.039.116s.039.039.039,0a.142.142,0,0,1,.039-.116c.077-.116.116-.27.154-.309a.549.549,0,0,0,.077-.232Z" transform="translate(-4.658 -14.68)" fill="url(#radial-gradient-11)"/>
                <path id="Path_145" data-name="Path 145" d="M.725,27.447c.039.039-.077.154-.116.232s-.309.077-.309,0L.339,27.6c.039-.039.116-.077.154-.116S.686,27.37.725,27.447Z" transform="translate(-0.3 -17.021)" fill="url(#radial-gradient-12)"/>
                <path id="Path_146" data-name="Path 146" d="M24.887,76.013c-.077.039-.232-.039-.309.039s.193.348.193.348a.64.64,0,0,0,.386.116c.077-.039.039-.348.039-.348s.039-.193-.077-.193C25.08,75.936,24.964,75.975,24.887,76.013Z" transform="translate(-15.194 -46.82)" fill="#939598"/>
                <path id="Path_147" data-name="Path 147" d="M44.116,14.616a.135.135,0,0,1-.039-.077l-.039-.039a.12.12,0,0,1-.039.077,1.673,1.673,0,0,0,.039.193,1.519,1.519,0,0,0,.077.232c.039.077.077.039.077.039h.039v-.116c0-.039,0-.154-.039-.193C44.193,14.693,44.116,14.616,44.116,14.616Z" transform="translate(-27.125 -9.094)" fill="url(#radial-gradient-13)"/>
                <g id="Group_2851" data-name="Group 2851" transform="translate(6.14 2.896)">
                  <path id="Path_148" data-name="Path 148" d="M.47,11.9a.12.12,0,0,0,.039.077c0,.039.039.039.077.077.077.154-.039.154-.116.232a.191.191,0,0,0-.039.116c0,.039-.039.039-.077.039a.3.3,0,0,1-.116.077C.2,12.479.2,12.479.2,12.441a.408.408,0,0,1,.077-.193c.039,0,.077,0,.116-.077v-.039l-.039-.039c-.077-.116-.039.116-.116.039-.039-.039,0-.077-.039-.154.039,0,.154-.039.154-.077Z" transform="translate(-0.2 -7.305)" fill="url(#radial-gradient-14)"/>
                  <path id="Path_149" data-name="Path 149" d="M1.963,12.277a.053.053,0,0,1,0,.077.083.083,0,0,1-.077.077H1.848a.142.142,0,0,0-.116-.039h0a.556.556,0,0,0-.116.077s0,.039-.039,0a.55.55,0,0,1-.077-.154l.039-.039c.077.039.077,0,.116-.077l.077.039C1.809,12.239,1.925,12.239,1.963,12.277Z" transform="translate(-0.998 -7.489)" fill="url(#radial-gradient-15)"/>
                  <path id="Path_150" data-name="Path 150" d="M3.631,8.173c.039.039,0,.077,0,.116a.135.135,0,0,0,.039.077l.039.077a.876.876,0,0,0-.039.154c-.039,0-.077.116-.077.154l-.039.039V8.752a.038.038,0,0,0-.039.039v.232a.038.038,0,0,0,.039.039L3.515,9.1h0c-.077.039-.116.193-.116.232s.039,0,.039.039v.039c0,.039-.077.077-.116.116l-.039-.039s.039.039-.039,0c-.077,0-.077-.039-.077-.039H3.129l-.039.039c-.039,0,0-.039-.077-.039s-.039.077-.116.116c-.039-.039-.116-.116-.154-.116h0L2.7,9.486v.077a.12.12,0,0,1-.077.039.12.12,0,0,1-.077.039l-.039.039c-.039,0-.039.039-.077.039V9.679S2.356,9.64,2.4,9.64c.039-.039.154-.154.077-.193H2.434a.142.142,0,0,0-.116-.039c-.077,0-.116.039-.193.039a.038.038,0,0,1-.039-.039H1.97c-.039.039-.077.039-.077.077a.389.389,0,0,0-.116-.039V9.408H1.7V9.37h.039a.038.038,0,0,1,.039-.039c.039,0,.077,0,.077-.039a.555.555,0,0,0,.116-.077h.039l.077-.077h.039c.039,0,0,0,.039.039s.116,0,.154,0c.077,0,.116-.039.193,0s0,.077.077.077h0a.083.083,0,0,0,.077-.077V9.138L2.7,9.1a.389.389,0,0,1,.116-.039c.039-.039,0-.077.039-.116H2.9s.039,0,0,.039l-.039.039c0,.077.077.077.154.039l.077-.039c.039-.039.077-.077.116-.077,0,0,.077-.077.116-.077q.058-.116.116-.116c0-.077.039-.077.077-.154C3.4,8.482,3.36,8.443,3.36,8.4s.039-.039.077-.077V8.289a.12.12,0,0,0,.039-.077c.039-.039.039-.039.116,0-.039,0-.039-.039.039-.039Z" transform="translate(-1.121 -5.006)" fill="url(#radial-gradient-16)"/>
                  <path id="Path_151" data-name="Path 151" d="M7.168,5.97c.039,0,0,.039,0,.039v.116a.135.135,0,0,0,.039.077h0c-.039,0-.039.039-.077.039a.876.876,0,0,1-.154.039s-.116.039-.116.077c-.039.039-.039.116-.077.154l-.193-.193H6.473l-.039.039L6.4,6.318H6.357c0,.039-.039.077,0,.116a.038.038,0,0,1,.039.039c0,.039,0,.077.039.077h0c-.077,0-.039,0-.077.039l-.039.039c-.116-.077,0-.039,0-.116L6.28,6.472V6.4a.142.142,0,0,1,.039-.116L6.4,6.241a.072.072,0,0,0,0-.116l.039-.039a.191.191,0,0,0,.116.039h0c0-.077.039-.154.077-.154a.191.191,0,0,1,.039-.116A.142.142,0,0,1,6.7,5.739c0-.039,0-.039.039-.039h.039a.591.591,0,0,0,.193.27.135.135,0,0,0,.077.039c.039,0,.039.039.077.039C7.052,6.048,7.09,6.009,7.168,5.97Z" transform="translate(-3.924 -3.499)" fill="url(#radial-gradient-17)"/>
                  <path id="Path_152" data-name="Path 152" d="M7.97,0a.135.135,0,0,1,.039.077c.039.039,0,.077-.039.116a.038.038,0,0,0,.039.039,1.673,1.673,0,0,1,.039.193A.135.135,0,0,1,8.009.5l.039.232A.389.389,0,0,1,8.086.85V.965a.556.556,0,0,0,.077.116V1.12h0c0,.039.077.154,0,.154-.039,0-.039-.077-.039-.077-.039-.039-.039-.077-.077-.077a.038.038,0,0,0-.039.039V1.2l-.039.039c0,.039-.077.116-.077.116a.169.169,0,0,0-.039.116c0,.077.039.077.039.077,0,.039,0,.039.039.077l.039.039.039.077-.039.039c-.154-.077-.193.154-.232.154S7.7,1.776,7.7,1.738c.039-.039,0-.116,0-.154s.039,0,.039-.077V1.352L7.7,1.313c.039-.077.039-.116.077-.193L7.816,1V.965c.039-.039,0-.116,0-.154V.7c0-.039.039,0,0-.077A.038.038,0,0,0,7.777.579.389.389,0,0,1,7.816.463V.27c0-.039.077-.077.077-.077L7.932.154C7.97.116,7.854.039,7.97,0,7.932.039,7.932,0,7.97,0Z" transform="translate(-4.804)" fill="url(#radial-gradient-18)"/>
                </g>
              </g>
              <path id="Path-6" data-name="Path" d="M79.065,12.633a2.886,2.886,0,0,0-.425-.5c-.232-.154-.618-.116-.772-.348-.309-.463-.039-.541-.7-.811a.053.053,0,0,1,0-.077,1.024,1.024,0,0,0,.193-.232c.039-.077,0-.193.116-.232.039-.039.039-.116.077-.154.077-.039.232-.039.309-.077,1.467.5,1.545,1.236,2.24,1.931a.829.829,0,0,1-.27-.154c-.154-.039-.193.039-.27-.077-.077-.077-.077-.27-.154-.348-.232-.27-.656-.425-.888-.7a13.61,13.61,0,0,0,1.2,1.506Z" transform="translate(-47.555 -6.261)" fill="url(#radial-gradient-19)"/>
              <g id="Path-7" data-name="Path" transform="translate(29.927 3.939)">
                <path id="Path_153" data-name="Path 153" d="M1.815,1.436c.039.039.309.463.386.541.039,0,.077.039.154.039a1.286,1.286,0,0,0,.232.116C1.892,1.436,1.815.7.348.2.232.239.077.239.039.277,0,.277,0,.316,0,.354A.414.414,0,0,0,.232.277,3.17,3.17,0,0,1,1.815,1.436Z" transform="translate(0 -0.2)"/>
                <path id="Path_154" data-name="Path 154" d="M3.836,3.69c-.27-.309-1.043-1.313-1.158-1.39L2.6,2.416A10.565,10.565,0,0,0,3.681,3.767Z" transform="translate(-1.596 -1.489)"/>
              </g>
              <path id="Path-8" data-name="Path" d="M23.953,2.976a.207.207,0,0,1-.116.154l-.116.116a.038.038,0,0,1-.039-.039V3.054a.389.389,0,0,0-.039-.116.169.169,0,0,1-.039-.116,1.365,1.365,0,0,0-.039-.232.135.135,0,0,1-.039-.077V2.4c0-.039-.154-.039-.154,0s-.077.039-.154.077c-.077,0-.348.154-.348.232,0,.116.077.154.077.193a.123.123,0,0,1-.116.116.166.166,0,0,0-.154.154c0,.039-.039.077-.116.077s-.193.077-.193.116a.549.549,0,0,0,.077.232c.039,0,.077.077.077.116s0,.116.039.116A.135.135,0,0,1,22.6,3.9c0,.039,0,.077.039.077a.135.135,0,0,1,.039.077c0,.039,0,.116.039.116l.077.232c0,.116.039.541.039.541a.135.135,0,0,0-.039.077.389.389,0,0,1-.039.116s-.077.039-.077.077-.077.077-.116.077-.116,0-.116.039a.038.038,0,0,1-.039.039c-.039,0-.039.039-.039.077s0,.116-.039.116a.135.135,0,0,0-.039.077c0,.039-.116.154-.154.193a1.54,1.54,0,0,1-.154.116.135.135,0,0,1-.077.039c-.039,0-.116,0-.116.039v.039l-.154.077a.135.135,0,0,0-.039.077c0,.039-.116.193-.154.193a.389.389,0,0,1-.116-.039s-.193.039-.232,0c-.039,0-.116,0-.116.039s0,.077-.039.077-.039.039-.077.077c0,.039-.077.077-.154.039-.039-.039.077-.039.077-.077a.038.038,0,0,0-.039-.039.135.135,0,0,1-.039-.077c0-.039,0-.077-.039-.077a.038.038,0,0,1-.039-.039s-.039-.039-.116,0a.2.2,0,0,1-.154.077c-.039,0-.154,0-.154.039a.762.762,0,0,0-.077.27,2.994,2.994,0,0,1-.039.348.135.135,0,0,0-.039.077c0,.039,0,.116-.039.116s-.039.116,0,.232c0,.154-.039.463-.039.463a.038.038,0,0,0-.039.039l-.077.154c-.039.039-.193.232-.193.193s-.154,0-.154,0a.169.169,0,0,1-.116.039,1.366,1.366,0,0,0-.232.039.135.135,0,0,1-.077.039c-.039,0-.077,0-.077.039a.135.135,0,0,1-.077.039c-.039,0-.077-.077-.039-.154.077-.077.309-.27.309-.27a.038.038,0,0,1,.039-.039.135.135,0,0,0,.039-.077c0-.039.039-.077.077-.116a.17.17,0,0,0,.039-.193,1.143,1.143,0,0,0-.077-.386c-.039-.039-.077-.077-.039-.116s-.077-.193-.193-.193-.425-.039-.425-.039a.135.135,0,0,1-.039-.077.566.566,0,0,1-.154-.077.053.053,0,0,0-.077,0h-.309a.038.038,0,0,1-.039.039c0,.077-.232.27-.27.232a.8.8,0,0,0-.309,0,.135.135,0,0,1-.077.039c-.039,0-.116,0-.116.039a.135.135,0,0,1-.077.039.083.083,0,0,0-.077.077c0,.039,0,.077-.039.077a.135.135,0,0,0-.039.077c0,.039,0,.077-.039.077s-.039.039-.039.077a.991.991,0,0,1-.077.193.169.169,0,0,0-.039.116c0,.039.039.193.116.193a.4.4,0,0,1,.232.193c0,.039,0,.077-.039.077a.135.135,0,0,0-.039.077c0,.039,0,.077-.039.077a.135.135,0,0,0-.039.077c0,.039,0,.077-.039.077s-.077.039-.077.116a.767.767,0,0,0,.039.425c.039.039.116.116.116.154A2.461,2.461,0,0,1,17,9.58a.135.135,0,0,0-.039.077c0,.039-.039.077-.077.116-.039,0-.077.077-.077.116s0,.077-.039.077c0,0,.039,0-.116.154l-.116.116c-.193.193-.386.348-.386.348a.135.135,0,0,1-.077.039.876.876,0,0,0-.154.039.565.565,0,0,1-.116.193.7.7,0,0,1-.309.193.969.969,0,0,1-.386.077c-.232.039-.425.077-.425.077a.135.135,0,0,0-.039.077.083.083,0,0,1-.077.077c-.039,0-.077-.077-.077-.116s.077-.116,0-.154a.824.824,0,0,0-.309,0c-.039,0-.116,0-.116.039a.135.135,0,0,1-.077.039c-.039,0-.077,0-.077.039,0,0-.154-.077-.154-.039a.135.135,0,0,1-.077.039c-.039,0-.116,0-.116.039a.135.135,0,0,1-.077.039c-.039,0-.193.039-.193.077s-.039.077-.077.116c-.039,0-.077.077-.077.116s.077.077.077.077a.135.135,0,0,0-.039.077c0,.039,0,.27-.039.27s-.077,0-.077.039a.169.169,0,0,1-.116.039.123.123,0,0,0-.116.116.778.778,0,0,0,.077.232s.116,0,.116.077,0,.27-.039.27a.478.478,0,0,0-.077.116,1.365,1.365,0,0,0,.039.232.135.135,0,0,1,.039.077c0,.039,0,.077.039.077a.169.169,0,0,1,.039.116c0,.039,0,.193-.039.193a.169.169,0,0,0-.039.116,1.672,1.672,0,0,0,.039.193.288.288,0,0,1,.116.116.556.556,0,0,1,.077.116.469.469,0,0,1,.039.193c0,.116,0,.348.039.348s.039.039.039.077-.116.27-.154.27a.842.842,0,0,0-.039.232c0,.116-.039.425-.039.425a.135.135,0,0,0-.039.077c0,.039,0,.116-.039.116h-.039a1.2,1.2,0,0,1-.27.077c-.077,0-.193,0-.193.039l-.039-.116-.077-.193c0-.27,0-.5-.039-.5a.135.135,0,0,1-.039-.077c0-.039,0-.077-.039-.077s0-.154,0-.193a.991.991,0,0,0-.077-.193.135.135,0,0,1-.039-.077.074.074,0,0,0-.116-.039c-.077,0-.348.077-.348.116a1.167,1.167,0,0,0-.116.348c0,.116-.077.618-.077.618l-.077.154a1.133,1.133,0,0,0,.116.386c.039.039.116.116.077.193,0,.077,0,.27.039.27a.937.937,0,0,1,.077.386v.348l-.772.309c0-.116-.039-.27,0-.27a.169.169,0,0,0,.039-.116c0-.077.039-.193.077-.193s.077-.077.077-.116,0-.077.039-.077a.038.038,0,0,0,.039-.039l.077-.193a1.624,1.624,0,0,0,.077-.193c0-.116-.039-.309-.077-.309s-.077-.116-.116-.116a.469.469,0,0,1-.039-.193c0-.116,0-.348.039-.348a.169.169,0,0,0,.039-.116c0-.039,0-.193.039-.193a.169.169,0,0,0,.039-.116c0-.039,0-.193.039-.193a.169.169,0,0,0,.039-.116c0-.039,0-.193.039-.193s.039-.039.039-.116c0-.039,0-.193.039-.193l.077-.232c0-.116-.039-.386-.039-.386a.135.135,0,0,1-.039-.077c0-.039,0-.077-.039-.077a.135.135,0,0,1-.039-.077c0-.039,0-.077-.039-.077a.135.135,0,0,1-.039-.077c0-.039,0-.077-.039-.077a1.461,1.461,0,0,1-.039-.309,2.223,2.223,0,0,1,.039-.579,7.292,7.292,0,0,0,0-1l-.039-.039-.039-.039a.853.853,0,0,0-.425.193,1.752,1.752,0,0,1-.077.309.135.135,0,0,0-.039.077c0,.039-.116.154-.232.232s-.309.193-.309.232a.038.038,0,0,1-.039.039c-.039,0-.039.039-.039.077s0,.077-.039.077-.039.039-.039.077,0,.077-.039.077a.135.135,0,0,0-.039.077c0,.039,0,.154-.039.154a.135.135,0,0,0-.039.077c0,.039,0,.154-.039.154s-.039.039-.077.077a1.61,1.61,0,0,1-.077.232.135.135,0,0,0-.039.077.135.135,0,0,1-.039.077c-.039,0-.077.077-.077.116a.083.083,0,0,1-.077.077c-.039,0-.154.077-.154.116a3.645,3.645,0,0,1-.116.348,1.593,1.593,0,0,0-.039.348c0,.193-.077.7-.077.7a.169.169,0,0,0-.039.116,1.672,1.672,0,0,1-.039.193.135.135,0,0,0-.039.077c0,.039,0,.077-.039.077a.038.038,0,0,0-.039.039.135.135,0,0,1-.077.039c-.039,0-.077,0-.077-.039a1,1,0,0,1,.116-.27l-.039-.039H8.739A17.4,17.4,0,0,1,21.791,1.2a2.258,2.258,0,0,1-.039.386c0,.077,2.317.425,2.471.463Z" transform="translate(-5.534 -0.737)"/>
              <path id="Path-9" data-name="Path" d="M12.473,16.857a1.854,1.854,0,0,0,0-.463,1.2,1.2,0,0,0-.077-.386,2.177,2.177,0,0,1-.039-.27.3.3,0,0,0-.077-.193,1.133,1.133,0,0,1-.116-.386c0-.077.039-.154.077-.154,0,0,.077-.463.077-.618a1.8,1.8,0,0,1,.116-.348l.965-.116.232,1.274a.169.169,0,0,0,.116-.039h.039a.389.389,0,0,0,.039-.116.135.135,0,0,1,.039-.077s.039-.309.039-.425,0-.232.039-.232c0,0-.039-.193,0-.232,0-.039,0-.077-.039-.077s.116-.309.116-.386a.469.469,0,0,0-.039-.193A.478.478,0,0,1,13.9,13.3l-.116-.116A.786.786,0,0,1,13.748,13a.389.389,0,0,1,.039-.116.786.786,0,0,0,.039-.193.389.389,0,0,0-.039-.116.135.135,0,0,1-.039-.077.135.135,0,0,0-.039-.077,1.366,1.366,0,0,1-.039-.232c0-.077.039-.116.077-.116,0,0-.193-.232-.193-.309v-.116a.876.876,0,0,0,.039-.154c0-.039-.039-.232,0-.232a.389.389,0,0,0,.116-.039.135.135,0,0,1,.077-.039c.039,0,.077-.116.039-.154a.135.135,0,0,1,.039-.077.135.135,0,0,0,.039-.077c0-.039.154-.077.193-.116.039,0,.077-.077.077-.116l2.9-1.506.425.27c.154-.154.116-.154.116-.154a.135.135,0,0,0,.039-.077c0-.039.039-.077.077-.116.039,0,.077-.077.077-.116a.135.135,0,0,1,.039-.077,2.461,2.461,0,0,0,.077-.27c0-.039-.077-.154-.116-.154a.767.767,0,0,1-.039-.425.478.478,0,0,1,.077-.116.135.135,0,0,0,.039-.077.135.135,0,0,1,.039-.077.135.135,0,0,0,.039-.077A.135.135,0,0,1,18,7.589a.135.135,0,0,0,.039-.077c0-.039-.193-.154-.232-.193-.077,0-.077-.154-.116-.193a.389.389,0,0,1,.039-.116.991.991,0,0,0,.077-.193.135.135,0,0,1,.039-.077.135.135,0,0,0,.039-.077.135.135,0,0,1,.039-.077l1.738-1.043.734,1.352.154.7c0,.039.154-.154.193-.193l.077-.154.039-.039a1.333,1.333,0,0,0,.039-.463V6.508a.389.389,0,0,0,.039-.116.135.135,0,0,1,.039-.077s.039-.27.039-.348a1.2,1.2,0,0,1,.077-.27.876.876,0,0,1,.154-.039c.039,0,.077-.039.154-.077.039-.039.116,0,.116,0l.039.039a.135.135,0,0,1,.039.077.135.135,0,0,0,.039.077l.039.039s-.154.039-.077.077a.232.232,0,0,0,.154-.039.083.083,0,0,1,.077-.077.135.135,0,0,0,.039-.077c0-.039.039-.039.116-.039.039,0,.232.039.193-.039V5.543l.039.039v.077c0,.039.077.039.116.039s.154-.154.154-.193a.135.135,0,0,1,.039-.077l.154-.077V5.311a.389.389,0,0,1,.116-.039.135.135,0,0,0,.077-.039,1.54,1.54,0,0,0,.154-.116c.039-.039.154-.154.154-.193a.135.135,0,0,1,.039-.077.389.389,0,0,0,.039-.116.135.135,0,0,1,.039-.077l.039-.039a.389.389,0,0,1,.116-.039c.039,0,.116-.039.116-.077s.077-.077.077-.077a.389.389,0,0,0,.039-.116.135.135,0,0,1,.039-.077s-.039-.425-.039-.541-.039-.232-.077-.232a.4.4,0,0,1-.039-.154.135.135,0,0,0-.039-.077.135.135,0,0,1-.039-.077.135.135,0,0,0-.039-.077.389.389,0,0,1-.039-.116c0-.039-.039-.116-.077-.116s-.077-.154-.077-.232c0-.039.116-.154.193-.116.077,0,.116-.039.116-.077s.116-.116.154-.154a.123.123,0,0,0,.116-.116c0-.039-.077-.116-.077-.193,0-.116.27-.232.348-.232s.309-.077.309-.039.154.772.154.772l.039.039a.288.288,0,0,0,.116-.116c.039-.039.116-.116.116-.154s.039-.077.077-.116c.039,0,.077-.077.077-.116s.039-.077.077-.116c.039,0,.077-.077.077-.077a.135.135,0,0,1,.077-.039c.039,0,.116-.154.116-.232s0-.116.039-.116.077-.039.116-.077c0-.039.077-.077.077-.077l.039-.039.039-.039V1.1c0-.039-.116-.116-.116-.154S25.41.87,25.332.87s-.116.039-.116.077-.039.039-.077.039a.135.135,0,0,0-.077.039s-.232.039-.309.039-.154,0-.154.039c0,0-.27.039-.386.039s-.232-.039-.232-.077-.116-.116-.154-.116a.038.038,0,0,1-.039-.039s-.309.039-.7.077L22.784.87c-.154-.039-.154,0-.154-.039S22.707.6,22.668.6a17.2,17.2,0,0,0-8.611,4.9A17.8,17.8,0,0,0,9.5,14.617h.193l.039.039a2.571,2.571,0,0,1-.116.27.1.1,0,0,0,.154,0,.038.038,0,0,0,.039-.039.135.135,0,0,0,.039-.077.135.135,0,0,1,.039-.077.786.786,0,0,0,.039-.193.389.389,0,0,1,.039-.116s.077-.5.077-.7a1.593,1.593,0,0,1,.039-.348,3.645,3.645,0,0,0,.116-.348c0-.039.116-.116.154-.116a.083.083,0,0,0,.077-.077c0-.039.077-.116.077-.116.039,0,.039-.039.039-.077a.135.135,0,0,1,.039-.077,1.61,1.61,0,0,0,.077-.232.083.083,0,0,1,.077-.077.4.4,0,0,0,.039-.154.135.135,0,0,1,.039-.077.389.389,0,0,0,.039-.116.135.135,0,0,1,.039-.077.135.135,0,0,0,.039-.077.135.135,0,0,1,.039-.077.135.135,0,0,0,.039-.077.135.135,0,0,1,.039-.077l.039-.039s.193-.154.309-.232.232-.193.232-.232a.135.135,0,0,1,.039-.077,1.752,1.752,0,0,0,.077-.309c0-.077.193-.154.425-.193l.27,3.166-.27,1.352.232.541-.116,1.2" transform="translate(-6.025 -0.368)" fill="#8a8c8e"/>
              <path id="Path-10" data-name="Path" d="M24.764,1.563c0-.039-.116-.077-.193-.077a.169.169,0,0,0-.116.039.135.135,0,0,1-.077.039A.135.135,0,0,0,24.3,1.6s-.232.039-.309.039-.154,0-.154.039c0,0-.27.039-.386.039s-.232-.039-.232-.077-.116-.116-.154-.116-.077-.077-.077-.077-.309.039-.7.077l-.309-.116c-.154-.039-.154,0-.154-.039V1.1A17.31,17.31,0,0,0,8.7,15.079l.154.077.039.039-.077.309a.1.1,0,0,0,.154,0,.038.038,0,0,0,.039-.039.135.135,0,0,0,.039-.077.135.135,0,0,1,.039-.077.786.786,0,0,0,.039-.193A.389.389,0,0,1,9.163,15s.077-.5.077-.7a1.593,1.593,0,0,1,.039-.348,3.645,3.645,0,0,0,.116-.348c0-.039.116-.116.154-.116a.083.083,0,0,0,.077-.077c0-.039.077-.116.077-.116.039,0,.039-.039.039-.077a.135.135,0,0,1,.039-.077,1.61,1.61,0,0,0,.077-.232.083.083,0,0,1,.077-.077.4.4,0,0,0,.039-.154.135.135,0,0,1,.039-.077.389.389,0,0,0,.039-.116.135.135,0,0,1,.039-.077.135.135,0,0,0,.039-.077.135.135,0,0,1,.039-.077.135.135,0,0,0,.039-.077.135.135,0,0,1,.039-.077l.039-.039s.193-.154.309-.232.232-.193.232-.232a.135.135,0,0,1,.039-.077,1.752,1.752,0,0,0,.077-.309c0-.077.193-.154.425-.193l.039.039.039.039a7.083,7.083,0,0,1,0,1s-.039.425-.039.579a1.461,1.461,0,0,0,.039.309.135.135,0,0,1,.039.077.135.135,0,0,0,.039.077.135.135,0,0,1,.039.077.135.135,0,0,0,.039.077.135.135,0,0,1,.039.077.135.135,0,0,0,.039.077s.039.27.039.386-.039.232-.077.232a.786.786,0,0,0-.039.193.389.389,0,0,1-.039.116.786.786,0,0,0-.039.193.389.389,0,0,1-.039.116.786.786,0,0,0-.039.193A.389.389,0,0,1,11.4,15a.786.786,0,0,0-.039.193.389.389,0,0,1-.039.116,2.994,2.994,0,0,0-.039.348.469.469,0,0,0,.039.193s.077.116.116.116.077.232.077.309c0,.116-.039.193-.077.193a.991.991,0,0,0-.077.193l-.039.039a.135.135,0,0,0-.039.077c0,.039-.039.077-.077.116-.039,0-.077.154-.077.193a.169.169,0,0,1-.039.116,1.494,1.494,0,0,0,.039.348l.734-.309a1.854,1.854,0,0,0,0-.463,1.2,1.2,0,0,0-.077-.386,2.177,2.177,0,0,1-.039-.27.3.3,0,0,0-.077-.193,1.133,1.133,0,0,1-.116-.386c0-.077.039-.154.077-.154,0,0,.077-.463.077-.618a1.8,1.8,0,0,1,.116-.348c0-.039.27-.077.348-.116.077,0,.116,0,.116.039a.135.135,0,0,0,.039.077.991.991,0,0,1,.077.193.135.135,0,0,0,.039.077.135.135,0,0,1,.039.077.135.135,0,0,0,.039.077,3.424,3.424,0,0,1,.039.5l.077.193.039.116a2.462,2.462,0,0,1,.348-.077.169.169,0,0,0,.116-.039h.039a.389.389,0,0,0,.039-.116.135.135,0,0,1,.039-.077s.039-.309.039-.425,0-.232.039-.232a2.215,2.215,0,0,1,.154-.27c0-.039,0-.077-.039-.077,0,0-.039-.27-.039-.348a.469.469,0,0,0-.039-.193.478.478,0,0,1-.077-.116l-.116-.116a.786.786,0,0,1-.039-.193.389.389,0,0,1,.039-.116.786.786,0,0,0,.039-.193.389.389,0,0,0-.039-.116.135.135,0,0,1-.039-.077A.135.135,0,0,0,13.1,12.8a1.365,1.365,0,0,1-.039-.232c0-.077.039-.116.077-.116s-.116-.154-.116-.232a.475.475,0,0,0-.077-.193.876.876,0,0,0,.039-.154.1.1,0,0,1,.116-.116c.039,0,0-.154,0-.154a.135.135,0,0,1,.077-.039c.039,0,.077-.116.039-.154a.135.135,0,0,1,.039-.077.135.135,0,0,0,.039-.077c0-.039.154-.077.193-.116.039,0,.077-.077.077-.116a.083.083,0,0,1,.077-.077.135.135,0,0,0,.077-.039.389.389,0,0,1,.116-.039.876.876,0,0,1,.154.039s.077,0,.077-.039a.135.135,0,0,1,.077-.039.135.135,0,0,0,.077-.039.389.389,0,0,1,.116-.039.824.824,0,0,1,.309,0c.077.039,0,.116,0,.154s.039.116.077.116a.083.083,0,0,0,.077-.077.135.135,0,0,1,.039-.077,1.593,1.593,0,0,1,.348-.039c.116-.039.27-.039.348-.077a1.845,1.845,0,0,0,.425-.232.353.353,0,0,0,.116-.193s.077-.077.154-.039c.039,0,.077,0,.077-.039a1.9,1.9,0,0,1,.386-.348l.193-.154C17.041,9.6,17,9.6,17,9.6a.135.135,0,0,0,.039-.077c0-.039.039-.077.077-.116.039,0,.077-.077.077-.116a.135.135,0,0,1,.039-.077,2.461,2.461,0,0,0,.077-.27c0-.039-.077-.154-.116-.154a.767.767,0,0,1-.039-.425.478.478,0,0,1,.077-.116.135.135,0,0,0,.039-.077.135.135,0,0,1,.039-.077.135.135,0,0,0,.039-.077.135.135,0,0,1,.039-.077.135.135,0,0,0,.039-.077c0-.039-.193-.154-.232-.193-.077,0-.077-.154-.116-.193a.389.389,0,0,1,.039-.116.991.991,0,0,0,.077-.193.135.135,0,0,1,.039-.077.135.135,0,0,0,.039-.077.135.135,0,0,1,.039-.077.135.135,0,0,0,.039-.077.083.083,0,0,1,.077-.077.135.135,0,0,0,.077-.039A.389.389,0,0,1,17.62,6.7a.135.135,0,0,0,.077-.039.8.8,0,0,1,.309,0c.077.039.116-.039.116-.116a.172.172,0,0,1,.116-.154.135.135,0,0,0,.077-.039h.309c.039-.039.077-.039.077,0a.566.566,0,0,0,.154.077c.039,0,.039.039.039.077a4.022,4.022,0,0,0,.425.039c.116,0,.232.154.193.193s0,.077.039.116a1.142,1.142,0,0,1,.077.386c0,.077,0,.193-.039.193s-.077.077-.077.116a.135.135,0,0,1-.039.077l-.039.039a1.688,1.688,0,0,0-.309.27.088.088,0,0,0,.039.154.135.135,0,0,0,.077-.039.135.135,0,0,1,.077-.039.135.135,0,0,0,.077-.039,1.365,1.365,0,0,1,.232-.039c.077,0,.116,0,.116-.039H19.9c0,.039.154-.154.193-.193a.55.55,0,0,0,.077-.154l.039-.039a1.333,1.333,0,0,0,.039-.463V6.815a.389.389,0,0,0,.039-.116.135.135,0,0,1,.039-.077s.039-.27.039-.348A1.2,1.2,0,0,1,20.439,6a.876.876,0,0,1,.154-.039c.039,0,.077-.039.154-.077.039-.039.116,0,.116,0l.039.039A.135.135,0,0,1,20.941,6a.135.135,0,0,0,.039.077l.039.039s-.154.039-.077.039A.232.232,0,0,0,21.1,6.12a.083.083,0,0,1,.077-.077.135.135,0,0,0,.039-.077c0-.039.039-.039.116-.039h.232c0,.039.077.039.116.039s.154-.154.154-.193a.135.135,0,0,1,.039-.077l.154-.077V5.579a.389.389,0,0,1,.116-.039.135.135,0,0,0,.077-.039,1.54,1.54,0,0,0,.154-.116c.039-.039.154-.154.154-.193a.135.135,0,0,1,.039-.077A.389.389,0,0,0,22.6,5a.135.135,0,0,1,.039-.077l.039-.039a.389.389,0,0,1,.116-.039c.039,0,.116-.039.116-.077s.077-.077.077-.077a.389.389,0,0,0,.039-.116.135.135,0,0,1,.039-.077s-.039-.425-.039-.541-.039-.232-.077-.232a.4.4,0,0,1-.039-.154.135.135,0,0,0-.039-.077.135.135,0,0,1-.039-.077.135.135,0,0,0-.039-.077.389.389,0,0,1-.039-.116c0-.039-.039-.116-.077-.116s-.077-.154-.077-.232c0-.039.116-.154.193-.116.077,0,.116-.039.116-.077s.116-.116.154-.154a.123.123,0,0,0,.116-.116c0-.039-.077-.116-.077-.193,0-.116.27-.232.348-.232s.154-.039.154-.077h.154v.116A.135.135,0,0,0,23.8,2.1a1.365,1.365,0,0,1,.039.232.169.169,0,0,0,.039.116.169.169,0,0,1,.039.116v.154l.039.039a.288.288,0,0,0,.116-.116c.039-.039.116-.116.116-.154s.039-.077.077-.116c.039,0,.077-.077.077-.116s.039-.077.077-.116c.039,0,.077-.077.077-.077a.135.135,0,0,1,.077-.039c.039,0,.116-.154.116-.232s0-.116.039-.116.077-.039.116-.077c0-.039.077-.077.077-.077l.039-.039L25,1.448V1.37C25,1.332,24.764,1.6,24.764,1.563Z" transform="translate(-5.534 -0.675)" fill="url(#radial-gradient-20)"/>
              <path id="Path-11" data-name="Path" d="M40.7,68.1l-3.707.811-.193.232a.348.348,0,0,0,.193.039,1.366,1.366,0,0,0,.232-.039h.039a.451.451,0,0,1,.348,0l.077.039h.154A3.392,3.392,0,0,0,38.5,69.1l.077.077c.077.077-.309.425,0,.541l.232.077A1.394,1.394,0,0,0,39,69.645a.135.135,0,0,0,.077.039c.039,0,.077,0,.077.039s0,.039.039.039a.135.135,0,0,1,.039.077c0,.039.039.116.077.116.039.039.116.077.116.116a.135.135,0,0,1,.039.077.566.566,0,0,1,.154.077.038.038,0,0,0,.039.039.135.135,0,0,1,.039.077.389.389,0,0,0,.039.116.667.667,0,0,1,.154.116.87.87,0,0,0,.193.193.169.169,0,0,0,.116.039c.077,0,.193.077.193.116a.174.174,0,0,0,.116.116c.039,0,.077,0,.077.039a.389.389,0,0,0,.116.039,1.2,1.2,0,0,0,.27-.077A.4.4,0,0,1,41.125,71c.077,0,.309-.039.348-.039l.039-.039.039-.039v-.463Z" transform="translate(-22.783 -41.803)"/>
              <path id="Path-12" data-name="Path" d="M42.822,66.94a.515.515,0,0,1,.116-.193c.039,0,.077-.077.077-.116s0-.077.039-.077a1.2,1.2,0,0,0,.077-.27.4.4,0,0,0-.039-.154.169.169,0,0,1-.039-.116c0-.039,0-.193-.039-.193s-.039-.039-.039-.077,0-.116-.039-.116l-.077-.154a2.462,2.462,0,0,0-.077-.348.135.135,0,0,1-.039-.077.389.389,0,0,0-.039-.116.038.038,0,0,1-.039-.039.555.555,0,0,0-.077-.116c-.039,0-.077-.039-.116-.077l-5.136,2.085-.039.039a.42.42,0,0,0,.193.039,1.365,1.365,0,0,0,.232-.039h.039a.451.451,0,0,1,.348,0l.077.039h.154A3.393,3.393,0,0,0,39,66.785l.077.077c.077.077-.309.425,0,.541l.232.077a1.394,1.394,0,0,0,.193-.154.135.135,0,0,0,.077.039c.039,0,.077,0,.077.039s0,.039.039.039a.135.135,0,0,1,.039.077c0,.039.039.116.077.116.039.039.116.077.116.116a.135.135,0,0,1,.039.077.566.566,0,0,1,.154.077.038.038,0,0,0,.039.039.135.135,0,0,1,.039.077.389.389,0,0,0,.039.116.666.666,0,0,1,.154.116.87.87,0,0,0,.193.193.169.169,0,0,0,.116.039c.077,0,.193.077.193.116a.174.174,0,0,0,.116.116c.039,0,.077,0,.077.039a.389.389,0,0,0,.116.039,1.2,1.2,0,0,0,.27-.077.4.4,0,0,1,.154-.039c.077,0,.309-.039.348-.039l.039-.039.039-.039V68.1s.077-.039.077-.077.077-.077.116-.077.077-.039.116-.077a.083.083,0,0,1,.077-.077.135.135,0,0,0,.039-.077.207.207,0,0,1,.116-.154c.039-.039.116-.116.116-.154a2.46,2.46,0,0,1,.077-.27.135.135,0,0,0,.039-.077.135.135,0,0,1,.039-.077C42.706,67.056,42.783,66.978,42.822,66.94Z" transform="translate(-23.089 -39.716)" fill="#939598"/>
              <path id="Path-13" data-name="Path" d="M1.5,37.041H1.427A1.018,1.018,0,0,1,.5,36V24.452a1.178,1.178,0,0,1,.656-1.081L40.313,7.577A1.128,1.128,0,0,1,40.66,7.5h.077a1.018,1.018,0,0,1,.927,1.043V20.089a1.178,1.178,0,0,1-.656,1.081L1.813,36.964A1.194,1.194,0,0,1,1.5,37.041Z" transform="translate(-0.5 -4.604)" fill="#fff"/>
              <g id="Group_2853" data-name="Group 2853" transform="translate(0.541 3.475)">
                <path id="Path-14" data-name="Path" d="M1.479,28.383c-.039,0-.077.039-.154.039a.475.475,0,0,1-.425-.5V16.373a.6.6,0,0,1,.309-.541L40.365.039A.232.232,0,0,1,40.52,0a.475.475,0,0,1,.425.5V12.048a.6.6,0,0,1-.309.541Z" transform="translate(-0.9)"/>
                <g id="Group_2852" data-name="Group 2852" transform="translate(2.085 3.63)">
                  <path id="Shape" d="M.339,34.206l2.51-1c1.313-.541,2.51-.618,2.51.579v.579c0,.734-.232,1.352-1.622,2.124v.039c1.12-.348,1.583-.193,1.583,1.043v.7c0,1.352-.85,2.124-2.51,2.78l-2.51,1V34.206Zm2.9.386c0-.386-.154-.425-.5-.309l-.232.154v2.124l.27-.116c.348-.154.5-.309.5-.7ZM2.5,40l.27-.116c.348-.154.5-.27.5-.579V37.566c0-.309-.154-.309-.5-.154l-.27.116Z" transform="translate(-0.3 -20.305)" fill="#fff"/>
                  <path id="Path-15" data-name="Path" d="M15.5,35.522v-7.8L19.477,26.1v1.12l-1.854.734v1.738l1.776-.734v1.12l-1.776.734v2.7l1.854-.734V33.9Z" transform="translate(-9.63 -16.176)" fill="#fff"/>
                  <path id="Path-16" data-name="Path" d="M32.82,25.482v1.776c0,1.043-1.2,1.892-2.51,2.433s-2.51.618-2.51-.425V24.015c0-1.043,1.2-1.892,2.51-2.433s2.51-.618,2.51.425v1.467l-2.124.85V23.088c0-.232-.039-.5-.386-.348a.629.629,0,0,0-.386.656v4.75c0,.232.039.5.386.348a.629.629,0,0,0,.386-.656V26.293Z" transform="translate(-17.181 -13.164)" fill="#fff"/>
                  <path id="Path-17" data-name="Path" d="M42.9,23.908v-7.8l2.124-.85v2.819l.772-.309V14.95l2.124-.85v7.8l-2.124.85V19.043l-.772.309v3.707Z" transform="translate(-26.45 -8.81)" fill="#fff"/>
                  <path id="Path-18" data-name="Path" d="M61.091,16.48l-2.162.85V10.649l-1.429.579v-1.12L62.52,8.1V9.22L61.091,9.8Z" transform="translate(-35.412 -5.127)" fill="#fff"/>
                  <path id="Path-19" data-name="Path" d="M72.1,12.784v-7.8L76.077,3.4V4.52l-1.854.734V7.03L76,6.3v1.12l-1.776.734v2.664l1.854-.734V11.2Z" transform="translate(-44.374 -2.242)" fill="#fff"/>
                  <path id="Path-20" data-name="Path" d="M84.2,9.05V1.288L86.362.4V7.081l1.892-.734v1.12Z" transform="translate(-51.801 -0.4)" fill="#fff"/>
                </g>
              </g>
            </g>
          </g>
        </g>
      </g>
    </g>
  </g>
</svg>
